<?xml version="1.0" encoding="UTF-8"?>
<svg id="Layer_1" data-name="Layer 1" xmlns="http://www.w3.org/2000/svg" viewBox="0 0 123 116">
  <defs>
    <style>
      .cls-1 {
        fill: #f9a21e;
      }
    </style>
  </defs>
  <g id="Layer_2" data-name="Layer 2">
    <path id="Icon_ionic-md-settings" data-name="Icon ionic-md-settings" class="cls-1" d="m86.3,60.91c.15-1.16.21-2.33.18-3.5,0-1.23-.18-2.28-.18-3.5l7.53-5.78c.73-.51.9-1.52.38-2.25,0-.01-.02-.02-.02-.03l-7.17-12.1c-.45-.73-1.36-1.03-2.16-.7l-8.96,3.51c-1.86-1.44-3.91-2.62-6.09-3.51l-1.26-9.29c-.23-.81-.95-1.38-1.79-1.4h-14.33c-.84.02-1.57.59-1.79,1.4l-1.44,9.29c-2.16.93-4.2,2.11-6.09,3.51l-8.96-3.51c-.79-.36-1.73-.06-2.16.7l-7.17,12.09c-.34.76-.2,1.66.36,2.28l7.71,5.78c0,1.23-.18,2.28-.18,3.5s.18,2.28.18,3.5l-7.53,5.79c-.73.51-.9,1.52-.38,2.25,0,.01.02.02.02.03l7.17,12.09c.45.73,1.36,1.03,2.16.7l8.96-3.51c1.86,1.44,3.91,2.62,6.09,3.51l1.44,9.29c.17.85.93,1.45,1.79,1.4h14.34c.84-.02,1.57-.59,1.79-1.4l1.44-9.29c2.16-.93,4.2-2.11,6.09-3.51l8.96,3.51c.79.36,1.73.06,2.16-.7l7.17-12.09c.34-.76.2-1.66-.36-2.28l-7.89-5.78Zm-26.71,8.76c-6.78-.15-12.14-5.77-11.99-12.55s5.77-12.14,12.55-11.99c6.67.15,11.99,5.6,11.99,12.27-.03,6.81-5.58,12.31-12.4,12.27-.05,0-.1,0-.16,0Z"/>
  </g>
</svg>